<svg xmlns="http://www.w3.org/2000/svg" version="1.1" xmlns:xlink="http://www.w3.org/1999/xlink" width="2000" height="1500" viewBox="0 0 2000 1500"><rect width="2000" height="1500" x="0" y="0" id="background" stroke="transparent" fill="#242424"></rect><svg xml:space="preserve" width="1500" height="1125" data-version="2" data-id="lg_0XZyKIf4fibc4J9IBa" viewBox="0 0 563 128" x="250" y="187.5"><rect width="100%" height="100%" fill="transparent"></rect><path fill="#e9e4de" d="m73.635 7.35 33.35 56.41q2.04 3.36 2.04 5.66 0 2.29-1.83 3.41-1.84 1.13-4.29 1.13h-32.84q-5 0-6.43-1.84-.41-.61-1.12-2.14l-2.96-6.33q-1.32-2.95-6.22-3.36h-19.28q-2.14 0-3.26.41-1.12.4-1.84 1.83l-3.98 8.26q-1.02 1.84-2.24 2.5-1.22.67-3.57.67h-9.18q-3.98 0-4.28-2.86-.11-.41-.11-.82 0-2.34 1.53-4.48l31.93-56.31q4.59-7.95 14.89-7.95h8.16q8.16 0 11.53 5.81m-33.05 26.11-4.69 9.28q-.41.92-.41 1.64 0 2.65 2.55 2.65h9.28q2.15 0 2.96-1.07.82-1.07.82-1.89 0-.82-.31-1.63l-3.88-8.77q-1.22-2.66-3.16-2.66-1.94 0-3.16 2.45"></path><rect width="103.43" height="72.42" x="-51.72" y="-36.21" fill="none" rx="0" ry="0" transform="translate(57.81 38.25)"></rect><path fill="#e9e4de" d="m158.295 13.27-.21 9.28v19.68q0 4.29 2.66 6.63 2.65 2.35 6.22 2.35t6.17-2.35q2.6-2.34 2.6-6.63V11.84q0-4.8 1.28-7.04 1.27-2.24 5.56-2.24h9.38q3.26 0 4.49 1.93 2.34 3.47 2.34 26.83 0 7.65-.2 11.73-.31 8.26-3.83 14.74-3.51 6.48-9.02 10.35-11.12 7.86-25.2 7.86-18.56 0-30.7-8.67-6.12-4.39-9.64-11.68-3.52-7.3-3.62-16.99-.1-4.79-.1-14.12 0-9.34.25-13.47.26-4.13 1.64-6.32 1.37-2.19 5.56-2.19h27.23q4.08 0 5.41 2.14 1.73 2.75 1.73 8.57"></path><rect width="82.31" height="73.44" x="-41.16" y="-36.72" fill="none" rx="0" ry="0" transform="translate(158.13 39.78)"></rect><path fill="#e9e4de" d="M255.905 73.75q-6.83.61-19.58.61-12.75 0-17.39-.35-4.64-.36-6.99-1.69-2.34-1.32-2.55-4.18-.61-11.01-.61-25.14t.41-29.94q.2-9.79 9.08-10.4 6.22-.41 19.07-.41 12.85 0 20.14.36 7.3.35 14.08 3.36t10.86 7.81q8.47 9.89 8.47 22.95 0 13.77-8.87 24.58-4.29 5.2-11.07 8.57-6.78 3.36-15.05 3.87m-4.59-49.16v24.68q0 .82.62 1.53.61.72 1.63.72 6.53 0 10.04-4.49 3.52-4.49 3.52-10.61 0-6.12-3.21-10.66t-8.62-4.54q-1.32 0-2.04.1-1.94.51-1.94 3.27"></path><rect width="82.11" height="72.11" x="-41.05" y="-36.05" fill="none" rx="0" ry="0" transform="translate(250.34 38.8)"></rect><path fill="#e9e4de" d="M308.235 73.96q-2.86 0-4.85-1.89-1.98-1.89-2.55-6.22-.56-4.34-.56-26.01 0-21.68.72-28.31.81-8.57 7.24-8.77 7.34-.2 60.89-.2 6.02 0 6.02 7.65 0 6.01-5.3 6.01h-22.44q-2.14 0-3.42 1.43-1.27 1.43-1.27 3.67v7.35q0 3.06 2.75 3.06h18.56q1.64 0 2.5.3.87.31 1.58 1.79.72 1.48.72 4.84 0 3.37-1.18 4.49-1.17 1.12-3.82 1.12h-16.63q-2.55 0-3.52 1.28-.96 1.27-.96 3.93v4.99q0 4.39 4.18 4.39h25.4q1.83 0 3.26 1.07 1.43 1.07 1.43 4.69t-1.74 6.48q-1.73 2.86-4.08 2.86z"></path><rect width="76.71" height="71.4" x="-38.35" y="-35.7" fill="none" rx="0" ry="0" transform="translate(339.13 38.76)"></rect><path fill="#e9e4de" d="m428.795 23.87.21 18.87q0 1.94 2.14 1.94 6.32 0 9.94-3.52 3.63-3.52 3.63-8.31 0-4.79-3.42-8.26-3.42-3.47-10.05-3.47-2.45 0-2.45 2.75m26.73 30.5q1.94 2.04 13.77 15.4.71.92.71 1.64 0 2.65-2.34 2.65-5.41.1-10.87.1-5.45 0-10.86-.1-2.96 0-5.41-2.35l-8.77-13.26q-.51-.61-1.22-.81-1.63-.62-1.63 1.32v10.41q0 4.38-5.77 4.69-5.76.3-12.59.3-6.84 0-16.53-.51-2.96-.2-4.74-2.04-1.79-1.83-2.09-4.18-.82-8.97-.82-28.2 0-19.23.61-28 .62-8.77 8.88-8.87 7.75-.11 21.11-.11t22.14.21q12.64.2 20.7 9.38 8.06 9.18 8.06 20.71 0 6.73-3.11 12.44-3.11 5.71-9.23 9.18"></path><rect width="83.64" height="71.91" x="-41.82" y="-35.95" fill="none" rx="0" ry="0" transform="translate(428.69 38.9)"></rect><path fill="#e9e4de" d="M487.655 73.96q-2.86 0-4.85-1.89-1.99-1.89-2.55-6.22-.56-4.34-.56-26.01 0-21.68.72-28.31.81-8.57 7.24-8.77 7.34-.2 60.89-.2 6.02 0 6.02 7.65 0 6.01-5.3 6.01h-22.44q-2.15 0-3.42 1.43-1.28 1.43-1.28 3.67v7.35q0 3.06 2.76 3.06h18.56q1.63 0 2.5.3.87.31 1.58 1.79.72 1.48.72 4.84 0 3.37-1.18 4.49-1.17 1.12-3.82 1.12h-16.63q-2.55 0-3.52 1.28-.97 1.27-.97 3.93v4.99q0 4.39 4.19 4.39h25.39q1.84 0 3.27 1.07t1.43 4.69q0 3.62-1.74 6.48-1.73 2.86-4.08 2.86z"></path><rect width="76.71" height="71.4" x="-38.35" y="-35.7" fill="none" rx="0" ry="0" transform="translate(518.55 38.76)"></rect><path fill="#e9e4de" d="M174.425 125.11v-18.9h5.27q3.13 0 5.16 1.18 2.02 1.19 3.01 3.31.98 2.12.98 4.98 0 2.81-.98 4.93-.99 2.12-3.01 3.31-2.03 1.19-5.16 1.19Zm2.38-2.16h2.97q2.21 0 3.67-.93 1.46-.94 2.19-2.58.73-1.65.73-3.78 0-2.14-.73-3.77t-2.19-2.58q-1.46-.94-3.67-.94h-2.97Z"></path><rect width="14.42" height="18.9" x="-7.21" y="-9.45" fill="none" rx="0" ry="0" transform="translate(182.13 116.16)"></rect><path fill="#e9e4de" d="M197.085 125.43q-1.81 0-3.15-.85-1.33-.85-2.08-2.43-.74-1.58-.74-3.79 0-2.3.74-3.86.75-1.57 2.12-2.39 1.38-.83 3.24-.83 1.19 0 2.05.43.87.44 1.44 1.11.56.68.81 1.43v-2.64h2.26v13.5h-2.26v-2.6q-.3.92-.99 1.58-.69.67-1.59 1-.91.34-1.85.34m.35-2.05q1.29 0 2.2-.69.9-.69 1.38-1.82.47-1.14.47-2.51 0-1.49-.47-2.62-.48-1.14-1.39-1.78-.92-.65-2.27-.65-1.33 0-2.2.66-.88.66-1.31 1.79-.43 1.14-.43 2.54 0 1.41.43 2.55.43 1.15 1.33 1.84.91.69 2.26.69"></path><rect width="12.66" height="14.15" x="-6.33" y="-7.08" fill="none" rx="0" ry="0" transform="translate(197.94 118.86)"></rect><path fill="#e9e4de" d="M208.585 125.11v-13.5h2.27v2.67q.21-.54.54-1.07.32-.52.82-.97.5-.44 1.24-.7.75-.26 1.8-.26.21 0 .59.03t.57.08v2.11q-.41-.14-1.03-.21-.62-.06-1.13.04-1.08.22-1.85.79-.77.56-1.16 1.48-.39.92-.39 2.22v7.29Z"></path><rect width="7.83" height="13.83" x="-3.92" y="-6.92" fill="none" rx="0" ry="0" transform="translate(213 118.7)"></rect><path fill="#e9e4de" d="M224.405 125.46q-1.89 0-3.35-.85-1.45-.85-2.28-2.45-.82-1.59-.82-3.75 0-1.67.47-2.98t1.32-2.24q.85-.94 2.03-1.42 1.17-.49 2.55-.49 1.67 0 3.04.72 1.36.71 2.17 2.21.81 1.5.81 3.85v.73h-10.23v-1.89h7.91q0-.41-.2-1.01-.21-.61-.64-1.19-.43-.58-1.12-.97-.69-.4-1.63-.4-1.46 0-2.39.61-.93.61-1.36 1.76-.44 1.14-.44 2.79 0 1.27.37 2.4.36 1.14 1.28 1.83.92.69 2.62.69.78 0 1.5-.3.71-.3 1.27-.82.55-.53.79-1.26l2.22.38q-.33 1.1-1.07 2.02-.74.92-1.93 1.47-1.19.56-2.89.56"></path><rect width="12.39" height="14.18" x="-6.2" y="-7.09" fill="none" rx="0" ry="0" transform="translate(224.65 118.87)"></rect><path fill="#e9e4de" d="M246.335 125.11v-16.74h-5.11v-2.16h12.58v2.16h-5.1v16.74Z"></path><rect width="12.58" height="18.9" x="-6.29" y="-9.45" fill="none" rx="0" ry="0" transform="translate(248.01 116.16)"></rect><path fill="#e9e4de" d="M260.185 125.43q-1.76 0-3.19-.8-1.43-.79-2.28-2.37-.85-1.58-.85-3.9 0-1.76.51-3.07.51-1.31 1.39-2.21.88-.91 2.03-1.35 1.14-.45 2.39-.45 1.75 0 3.18.8 1.43.8 2.28 2.38.85 1.57.85 3.9 0 1.72-.51 3.05-.51 1.32-1.39 2.23-.88.9-2.01 1.35-1.13.44-2.4.44m0-2.05q1.99 0 3.02-1.35t1.03-3.67q0-2.33-1.03-3.68t-3.02-1.35q-1.95 0-3 1.35t-1.05 3.68q0 2.32 1.04 3.67t3.01 1.35"></path><rect width="12.63" height="14.15" x="-6.32" y="-7.08" fill="none" rx="0" ry="0" transform="translate(260.68 118.86)"></rect><path fill="#e9e4de" d="M278.165 125.11v-2.06h3.18v-14.79h-3.18v-2.05h8.75v2.05h-3.19v14.79h3.19v2.06Z"></path><rect width="8.75" height="18.9" x="-4.38" y="-9.45" fill="none" rx="0" ry="0" transform="translate(283.04 116.16)"></rect><path fill="#e9e4de" d="M291.445 125.11v-13.5h2.27v2.53q.08-.35.38-.83.3-.49.84-.95.54-.46 1.35-.77t1.94-.31q1.32 0 2.33.57 1.02.57 1.61 1.67.6 1.11.6 2.73v8.86h-2.27v-8.54q0-1.75-.84-2.49-.84-.75-2.19-.75-1.24 0-2.08.59-.83.58-1.25 1.59-.42 1.01-.42 2.31v7.29Z"></path><rect width="11.32" height="13.83" x="-5.66" y="-6.92" fill="none" rx="0" ry="0" transform="translate(297.6 118.7)"></rect><path fill="#e9e4de" d="M307.295 125.11v-13.5h2.27v2.53q.08-.35.38-.83.29-.49.83-.95.54-.46 1.35-.77t1.95-.31q1.32 0 2.33.57 1.02.57 1.61 1.67.59 1.11.59 2.73v8.86h-2.26v-8.54q0-1.75-.84-2.49-.84-.75-2.19-.75-1.24 0-2.08.59-.83.58-1.25 1.59-.42 1.01-.42 2.31v7.29Z"></path><rect width="11.31" height="13.83" x="-5.66" y="-6.92" fill="none" rx="0" ry="0" transform="translate(313.45 118.7)"></rect><path fill="#e9e4de" d="M328.225 125.43q-1.76 0-3.19-.8-1.43-.79-2.28-2.37-.85-1.58-.85-3.9 0-1.76.51-3.07.51-1.31 1.39-2.21.88-.91 2.03-1.35 1.14-.45 2.39-.45 1.75 0 3.18.8 1.43.8 2.28 2.38.85 1.57.85 3.9 0 1.72-.51 3.05-.51 1.32-1.39 2.23-.88.9-2.01 1.35-1.13.44-2.4.44m0-2.05q1.99 0 3.02-1.35t1.03-3.67q0-2.33-1.03-3.68t-3.02-1.35q-1.95 0-3 1.35t-1.05 3.68q0 2.32 1.04 3.67t3.01 1.35"></path><rect width="12.63" height="14.15" x="-6.32" y="-7.08" fill="none" rx="0" ry="0" transform="translate(328.72 118.86)"></rect><path fill="#e9e4de" d="M336.425 111.61h2.68l4.7 13.5h-2.25Zm12.64 0-5.05 13.5h-2.19l4.78-13.5Z"></path><rect width="12.64" height="13.5" x="-6.32" y="-6.75" fill="none" rx="0" ry="0" transform="translate(343.25 118.86)"></rect><path fill="#e9e4de" d="M356.595 125.43q-1.81 0-3.14-.85-1.34-.85-2.08-2.43t-.74-3.79q0-2.3.74-3.86.74-1.57 2.12-2.39 1.38-.83 3.24-.83 1.19 0 2.05.43.86.44 1.43 1.11.57.68.81 1.43v-2.64h2.27v13.5h-2.27v-2.6q-.3.92-.98 1.58-.69.67-1.6 1-.9.34-1.85.34m.35-2.05q1.3 0 2.2-.69.91-.69 1.38-1.82.47-1.14.47-2.51 0-1.49-.47-2.62-.47-1.14-1.39-1.78-.92-.65-2.27-.65-1.32 0-2.2.66-.87.66-1.31 1.79-.43 1.14-.43 2.54 0 1.41.43 2.55.44 1.15 1.34 1.84.9.69 2.25.69"></path><rect width="12.66" height="14.15" x="-6.33" y="-7.08" fill="none" rx="0" ry="0" transform="translate(357.46 118.86)"></rect><path fill="#e9e4de" d="M372.795 125.43q-2.21 0-3.13-1-.92-1-.92-2.89v-7.85h-2.43v-2.08h.62q.73 0 1.12-.15.4-.15.54-.56.15-.4.15-1.18v-1.54h2.27v3.45h3.48v2.06h-3.48v7.85q0 1.08.51 1.51.52.44 1.52.44.27 0 .59-.03.32-.03.65-.08v1.83q-.35.11-.76.17-.4.05-.73.05"></path><rect width="8.18" height="17.25" x="-4.09" y="-8.63" fill="none" rx="0" ry="0" transform="translate(370.9 117.3)"></rect><path fill="#e9e4de" d="M383.225 125.46q-1.89 0-3.35-.85-1.46-.85-2.28-2.45-.83-1.59-.83-3.75 0-1.67.47-2.98.48-1.31 1.33-2.24.85-.94 2.02-1.42 1.18-.49 2.55-.49 1.68 0 3.04.72 1.37.71 2.18 2.21t.81 3.85v.73h-10.24v-1.89h7.91q0-.41-.2-1.01-.2-.61-.63-1.19-.44-.58-1.12-.97-.69-.4-1.64-.4-1.46 0-2.39.61-.93.61-1.36 1.76-.43 1.14-.43 2.79 0 1.27.36 2.4.37 1.14 1.28 1.83.92.69 2.62.69.79 0 1.5-.3.72-.3 1.27-.82.55-.53.8-1.26l2.21.38q-.32 1.1-1.07 2.02-.74.92-1.93 1.47-1.18.56-2.88.56"></path><rect width="12.4" height="14.18" x="-6.2" y="-7.09" fill="none" rx="0" ry="0" transform="translate(383.46 118.87)"></rect></svg></svg>