<svg xmlns="http://www.w3.org/2000/svg" xml:space="preserve" width="192" height="192" data-version="2">
    <path d="M119.61 51.86 168 133.7q2.96 4.88 2.96 8.21 0 3.33-2.66 4.96-2.67 1.63-6.22 1.63h-47.65q-7.26 0-9.33-2.66-.59-.89-1.63-3.11l-4.29-9.18q-1.92-4.29-9.03-4.88H62.18q-3.11 0-4.73.59-1.63.59-2.67 2.66l-5.77 11.99q-1.48 2.67-3.26 3.63-1.77.96-5.18.96H27.25q-5.77 0-6.21-4.14-.15-.6-.15-1.19 0-3.4 2.22-6.51l46.32-81.7q6.66-11.54 21.61-11.54h11.84q11.84 0 16.73 8.44M71.65 89.74l-6.8 13.47q-.6 1.33-.6 2.37 0 3.85 3.7 3.85h13.47q3.11 0 4.29-1.56 1.19-1.55 1.19-2.73 0-1.19-.45-2.37l-5.62-12.73q-1.78-3.85-4.59-3.85-2.81 0-4.59 3.55" paint-order="stroke"/>
    <rect width="150.07" height="105.08" x="-75.035" y="-52.54" fill="none" rx="0" ry="0" transform="translate(96.425 96.46)"/>
</svg>
